{"title":"BBC.Horizon.2011.2012.S48E01.Do.You.See.What.I.See.x264.aac.mp4.","uid":6605751,"size":1135673815,"categoryP":"video","categoryS":"hd___tv_shows","magnet":"?xt=urn:btih:56a1acf4bc19d366417af915818d9d53d1e2f891&amp;dn=BBC.Horizon.2011.2012.S48E01.Do.You.See.What.I.See.x264.aac.mp4.&amp;tr=udp%3A%2F%2Ftracker.openbittorrent.com%3A80&amp;tr=udp%3A%2F%2Fopen.demonii.com%3A1337&amp;tr=udp%3A%2F%2Ftracker.coppersurfer.tk%3A6969&amp;tr=udp%3A%2F%2Fexodus.desync.com%3A6969","seeders":1,"leechers":0,"uploader":"aularon","files":-1,"time":1313399723,"description":"\n- - -\nSynopsis\n- - -\n\n\nRoses are red, violets are blue but according to the latest understanding these colours are really an illusion. One that you create yourself.\n\nHorizon reveals a surprising truth about how we all see the world. You may think a rose is red, the sky is blue and the grass is green, but it now seems that the colours you see may not always be the same as the colours I see. Your age, sex and even mood can affect how you experience colours.\n\nScientists have unlocked the hidden power that colours can have over your life - how red can make you a winner, how blue makes time speed up, and more.\n\n\n- - -\nURL\n- - -\n &lt;a href=&quot;\nhttp://www.bbc.co.uk/programmes/b013c8tb&quot; rel=&quot;nofollow&quot; target=&quot;_NEW&quot;&gt;\nhttp://www.bbc.co.uk/programmes/b013c8tb&lt;/a&gt;\n\n\n- - -\nTechnical Details\n- - -\n\nGeneral\nComplete name : BBC.Horizon.2011.2012.S48E01.Do.You.See.What.I.See/Horizon_-_2011-2012_1._Do_You_See_What_I_See_b013c8tb_default.mp4\nFormat : MPEG-4\nFormat profile : Base Media\nCodec ID : isom\nFile size : 1.06 GiB\nDuration : 59mn 15s\nOverall bit rate : 2 555 Kbps\nMovie name : Horizon: 2011-2012: Do You See What I See?\nAlbum : Horizon\nTrack name/Position : 1\nTrack name/Total : 0\nPerformer : Horizon\nGenre : Factual,Science &amp; Nature\nRecorded date : 2011-08-08T21:00:00+01:00\nWriting application : Lavf53.6.0\nCover : Yes\nComment : Recorded using get_iplayer, by Aularon.\nrtng : 2\nstik : 1\ndesc : Horizon explores the evidence for the theory that colours are really an illusion, experienced subjectively depending on age, sex and even mood.\ntvnn : BBC Two\ntvsh : Horizon\ntven : b013c8tb\ncatg : Factual,Science &amp; Nature\ntves : 1\n\nVideo\nID : 1\nFormat : AVC\nFormat/Info : Advanced Video Codec\nFormat profile : &lt;a class=&quot;__cf_email__&quot; href=&quot;/cdn-cgi/l/email-protection&quot; data-cfemail=&quot;cf87a6a8a78f83fbe1fe&quot;&gt;[email&amp;#160;protected]&lt;/a&gt;&lt;script cf-hash='f9e31' type=&quot;text/javascript&quot;&gt;\n/* &lt;![CDATA[ */!function(){try{var t=&quot;currentScript&quot;in document?document.currentScript:function(){for(var t=document.getElementsByTagName(&quot;script&quot;),e=t.length;e--;)if(t[e].getAttribute(&quot;cf-hash&quot;))return t[e]}();if(t&amp;&amp;t.previousSibling){var e,r,n,i,c=t.previousSibling,a=c.getAttribute(&quot;data-cfemail&quot;);if(a){for(e=&quot;&quot;,r=parseInt(a.substr(0,2),16),n=2;a.length-n;n+=2)i=parseInt(a.substr(n,2),16)^r,e+=String.fromCharCode(i);e=document.createTextNode(e),c.parentNode.replaceChild(e,c)}}}catch(u){}}();/* ]]&gt; */&lt;/script&gt;\nFormat settings, CABAC : Yes\nFormat settings, ReFrames : 6 frames\nCodec ID : avc1\nCodec ID/Info : Advanced Video Coding\nDuration : 59mn 15s\nBit rate mode : Variable\nBit rate : 2 454 Kbps\nMaximum bit rate : 3 500 Kbps\nWidth : 1 280 pixels\nHeight : 720 pixels\nDisplay aspect ratio : 16:9\nFrame rate mode : Constant\nFrame rate : 25.000 fps\nStandard : PAL\nColor space : YUV\nChroma subsampling : 4:2:0\nBit depth : 8 bits\nScan type : Progressive\nBits/(Pixel*Frame) : 0.107\nStream size : 1.02 GiB (96%)\n\nAudio\nID : 2\nFormat : AAC\nFormat/Info : Advanced Audio Codec\nFormat profile : HE-AAC / LC\nCodec ID : 40\nDuration : 59mn 15s\nBit rate mode : Constant\nBit rate : 96.0 Kbps\nChannel(s) : 2 channels\nChannel positions : Front: L R\nSampling rate : 48.0 KHz / 24.0 KHz\nCompression mode : Lossy\nStream size : 40.1 MiB (4%)","torrent":{"xt":"urn:btih:56a1acf4bc19d366417af915818d9d53d1e2f891","amp;dn":"BBC.Horizon.2011.2012.S48E01.Do.You.See.What.I.See.x264.aac.mp4.","amp;tr":["udp%3A%2F%2Ftracker.openbittorrent.com%3A80","udp%3A%2F%2Fopen.demonii.com%3A1337","udp%3A%2F%2Ftracker.coppersurfer.tk%3A6969","udp%3A%2F%2Fexodus.desync.com%3A6969"],"infoHash":"56a1acf4bc19d366417af915818d9d53d1e2f891","infoHashBuffer":{"type":"Buffer","data":[86,161,172,244,188,25,211,102,65,122,249,21,129,141,157,83,209,226,248,145]},"announce":[],"urlList":[]}}